<mxfile host="app.diagrams.net" modified="2021-06-29T12:31:08.697Z" agent="5.0 (Windows NT 10.0; Win64; x64) AppleWebKit/537.36 (KHTML, like Gecko) Chrome/91.0.4472.114 Safari/537.36" etag="dm5y7RFrazFXanEkcVtR" version="14.8.2" type="github">
  <diagram id="C5RBs43oDa-KdzZeNtuy" name="Page-1">
    <mxGraphModel dx="1909" dy="794" grid="1" gridSize="10" guides="1" tooltips="1" connect="1" arrows="1" fold="1" page="1" pageScale="1" pageWidth="1200" pageHeight="1600" math="0" shadow="0">
      <root>
        <mxCell id="WIyWlLk6GJQsqaUBKTNV-0" />
        <mxCell id="WIyWlLk6GJQsqaUBKTNV-1" parent="WIyWlLk6GJQsqaUBKTNV-0" />
        <mxCell id="WIyWlLk6GJQsqaUBKTNV-2" value="" style="rounded=0;html=1;jettySize=auto;orthogonalLoop=1;fontSize=11;endArrow=block;endFill=0;endSize=8;strokeWidth=1;shadow=0;labelBackgroundColor=none;edgeStyle=orthogonalEdgeStyle;" parent="WIyWlLk6GJQsqaUBKTNV-1" source="WIyWlLk6GJQsqaUBKTNV-3" edge="1">
          <mxGeometry relative="1" as="geometry">
            <mxPoint x="414" y="140" as="targetPoint" />
          </mxGeometry>
        </mxCell>
        <mxCell id="WIyWlLk6GJQsqaUBKTNV-3" value="메인" style="rounded=1;whiteSpace=wrap;html=1;fontSize=12;glass=0;strokeWidth=1;shadow=0;" parent="WIyWlLk6GJQsqaUBKTNV-1" vertex="1">
          <mxGeometry x="354" y="40" width="120" height="40" as="geometry" />
        </mxCell>
        <mxCell id="9jra-Ao3VNzyFk-96re9-0" value="01 카테고리" style="rounded=1;whiteSpace=wrap;html=1;" vertex="1" parent="WIyWlLk6GJQsqaUBKTNV-1">
          <mxGeometry x="20" y="160" width="120" height="60" as="geometry" />
        </mxCell>
        <mxCell id="9jra-Ao3VNzyFk-96re9-34" value="" style="edgeStyle=orthogonalEdgeStyle;rounded=0;orthogonalLoop=1;jettySize=auto;html=1;" edge="1" parent="WIyWlLk6GJQsqaUBKTNV-1" source="9jra-Ao3VNzyFk-96re9-2" target="9jra-Ao3VNzyFk-96re9-33">
          <mxGeometry relative="1" as="geometry" />
        </mxCell>
        <mxCell id="9jra-Ao3VNzyFk-96re9-2" value="로그인 창" style="rounded=1;whiteSpace=wrap;html=1;" vertex="1" parent="WIyWlLk6GJQsqaUBKTNV-1">
          <mxGeometry x="840" y="320" width="120" height="60" as="geometry" />
        </mxCell>
        <mxCell id="9jra-Ao3VNzyFk-96re9-44" value="" style="edgeStyle=orthogonalEdgeStyle;rounded=0;orthogonalLoop=1;jettySize=auto;html=1;" edge="1" parent="WIyWlLk6GJQsqaUBKTNV-1" source="9jra-Ao3VNzyFk-96re9-3">
          <mxGeometry relative="1" as="geometry">
            <mxPoint x="300" y="410" as="targetPoint" />
            <Array as="points">
              <mxPoint x="560" y="410" />
            </Array>
          </mxGeometry>
        </mxCell>
        <mxCell id="9jra-Ao3VNzyFk-96re9-3" value="04 실시간 인기상품" style="rounded=1;whiteSpace=wrap;html=1;" vertex="1" parent="WIyWlLk6GJQsqaUBKTNV-1">
          <mxGeometry x="500" y="160" width="120" height="60" as="geometry" />
        </mxCell>
        <mxCell id="9jra-Ao3VNzyFk-96re9-39" value="" style="edgeStyle=orthogonalEdgeStyle;rounded=0;orthogonalLoop=1;jettySize=auto;html=1;" edge="1" parent="WIyWlLk6GJQsqaUBKTNV-1" source="9jra-Ao3VNzyFk-96re9-4" target="9jra-Ao3VNzyFk-96re9-38">
          <mxGeometry relative="1" as="geometry" />
        </mxCell>
        <mxCell id="9jra-Ao3VNzyFk-96re9-4" value="03 새로운 스토어" style="rounded=1;whiteSpace=wrap;html=1;" vertex="1" parent="WIyWlLk6GJQsqaUBKTNV-1">
          <mxGeometry x="340" y="160" width="120" height="60" as="geometry" />
        </mxCell>
        <mxCell id="9jra-Ao3VNzyFk-96re9-42" value="" style="edgeStyle=orthogonalEdgeStyle;rounded=0;orthogonalLoop=1;jettySize=auto;html=1;entryX=0.5;entryY=0;entryDx=0;entryDy=0;" edge="1" parent="WIyWlLk6GJQsqaUBKTNV-1" source="9jra-Ao3VNzyFk-96re9-5" target="9jra-Ao3VNzyFk-96re9-40">
          <mxGeometry relative="1" as="geometry">
            <mxPoint x="240" y="350" as="targetPoint" />
          </mxGeometry>
        </mxCell>
        <mxCell id="9jra-Ao3VNzyFk-96re9-5" value="02 추천상품" style="rounded=1;whiteSpace=wrap;html=1;" vertex="1" parent="WIyWlLk6GJQsqaUBKTNV-1">
          <mxGeometry x="180" y="160" width="120" height="60" as="geometry" />
        </mxCell>
        <mxCell id="9jra-Ao3VNzyFk-96re9-6" value="검색창" style="rounded=1;whiteSpace=wrap;html=1;" vertex="1" parent="WIyWlLk6GJQsqaUBKTNV-1">
          <mxGeometry x="670" y="240" width="120" height="60" as="geometry" />
        </mxCell>
        <mxCell id="9jra-Ao3VNzyFk-96re9-7" value="로그인/회원가입" style="rounded=1;whiteSpace=wrap;html=1;" vertex="1" parent="WIyWlLk6GJQsqaUBKTNV-1">
          <mxGeometry x="670" y="320" width="120" height="60" as="geometry" />
        </mxCell>
        <mxCell id="9jra-Ao3VNzyFk-96re9-8" value="my장터" style="rounded=1;whiteSpace=wrap;html=1;" vertex="1" parent="WIyWlLk6GJQsqaUBKTNV-1">
          <mxGeometry x="670" y="400" width="120" height="60" as="geometry" />
        </mxCell>
        <mxCell id="9jra-Ao3VNzyFk-96re9-9" value="nav bar" style="rounded=1;whiteSpace=wrap;html=1;" vertex="1" parent="WIyWlLk6GJQsqaUBKTNV-1">
          <mxGeometry x="670" y="160" width="120" height="60" as="geometry" />
        </mxCell>
        <mxCell id="9jra-Ao3VNzyFk-96re9-15" value="" style="endArrow=classic;html=1;" edge="1" parent="WIyWlLk6GJQsqaUBKTNV-1">
          <mxGeometry width="50" height="50" relative="1" as="geometry">
            <mxPoint x="790" y="350" as="sourcePoint" />
            <mxPoint x="830" y="350" as="targetPoint" />
          </mxGeometry>
        </mxCell>
        <mxCell id="9jra-Ao3VNzyFk-96re9-17" value="" style="endArrow=classic;html=1;exitX=1;exitY=0.5;exitDx=0;exitDy=0;" edge="1" parent="WIyWlLk6GJQsqaUBKTNV-1" source="9jra-Ao3VNzyFk-96re9-2">
          <mxGeometry width="50" height="50" relative="1" as="geometry">
            <mxPoint x="960" y="400" as="sourcePoint" />
            <mxPoint x="1010" y="350" as="targetPoint" />
          </mxGeometry>
        </mxCell>
        <mxCell id="9jra-Ao3VNzyFk-96re9-29" value="" style="edgeStyle=orthogonalEdgeStyle;rounded=0;orthogonalLoop=1;jettySize=auto;html=1;" edge="1" parent="WIyWlLk6GJQsqaUBKTNV-1" source="9jra-Ao3VNzyFk-96re9-18" target="9jra-Ao3VNzyFk-96re9-27">
          <mxGeometry relative="1" as="geometry" />
        </mxCell>
        <mxCell id="9jra-Ao3VNzyFk-96re9-30" value="" style="edgeStyle=orthogonalEdgeStyle;rounded=0;orthogonalLoop=1;jettySize=auto;html=1;" edge="1" parent="WIyWlLk6GJQsqaUBKTNV-1" source="9jra-Ao3VNzyFk-96re9-18" target="9jra-Ao3VNzyFk-96re9-19">
          <mxGeometry relative="1" as="geometry" />
        </mxCell>
        <mxCell id="9jra-Ao3VNzyFk-96re9-18" value="아이디비번 입력" style="rhombus;whiteSpace=wrap;html=1;" vertex="1" parent="WIyWlLk6GJQsqaUBKTNV-1">
          <mxGeometry x="1020" y="310" width="130" height="80" as="geometry" />
        </mxCell>
        <mxCell id="9jra-Ao3VNzyFk-96re9-26" value="" style="edgeStyle=orthogonalEdgeStyle;rounded=0;orthogonalLoop=1;jettySize=auto;html=1;exitX=0;exitY=0.75;exitDx=0;exitDy=0;entryX=0.75;entryY=1;entryDx=0;entryDy=0;" edge="1" parent="WIyWlLk6GJQsqaUBKTNV-1" source="9jra-Ao3VNzyFk-96re9-27" target="9jra-Ao3VNzyFk-96re9-2">
          <mxGeometry relative="1" as="geometry">
            <mxPoint x="1030" y="580" as="sourcePoint" />
            <Array as="points">
              <mxPoint x="1085" y="465" />
              <mxPoint x="1085" y="460" />
              <mxPoint x="930" y="460" />
            </Array>
          </mxGeometry>
        </mxCell>
        <mxCell id="9jra-Ao3VNzyFk-96re9-31" style="edgeStyle=orthogonalEdgeStyle;rounded=0;orthogonalLoop=1;jettySize=auto;html=1;entryX=1;entryY=0.75;entryDx=0;entryDy=0;" edge="1" parent="WIyWlLk6GJQsqaUBKTNV-1" source="9jra-Ao3VNzyFk-96re9-19" target="WIyWlLk6GJQsqaUBKTNV-3">
          <mxGeometry relative="1" as="geometry">
            <Array as="points">
              <mxPoint x="1085" y="70" />
            </Array>
          </mxGeometry>
        </mxCell>
        <mxCell id="9jra-Ao3VNzyFk-96re9-19" value="TRUE" style="rounded=0;whiteSpace=wrap;html=1;" vertex="1" parent="WIyWlLk6GJQsqaUBKTNV-1">
          <mxGeometry x="1025" y="220" width="120" height="60" as="geometry" />
        </mxCell>
        <mxCell id="9jra-Ao3VNzyFk-96re9-27" value="FALSE" style="rounded=0;whiteSpace=wrap;html=1;" vertex="1" parent="WIyWlLk6GJQsqaUBKTNV-1">
          <mxGeometry x="1025" y="420" width="120" height="60" as="geometry" />
        </mxCell>
        <mxCell id="9jra-Ao3VNzyFk-96re9-36" value="" style="edgeStyle=orthogonalEdgeStyle;rounded=0;orthogonalLoop=1;jettySize=auto;html=1;" edge="1" parent="WIyWlLk6GJQsqaUBKTNV-1" source="9jra-Ao3VNzyFk-96re9-33" target="9jra-Ao3VNzyFk-96re9-35">
          <mxGeometry relative="1" as="geometry" />
        </mxCell>
        <mxCell id="9jra-Ao3VNzyFk-96re9-33" value="회원가입" style="rhombus;whiteSpace=wrap;html=1;" vertex="1" parent="WIyWlLk6GJQsqaUBKTNV-1">
          <mxGeometry x="820" y="490" width="160" height="80" as="geometry" />
        </mxCell>
        <mxCell id="9jra-Ao3VNzyFk-96re9-35" value="회원가입 입력폼" style="rounded=1;whiteSpace=wrap;html=1;" vertex="1" parent="WIyWlLk6GJQsqaUBKTNV-1">
          <mxGeometry x="840" y="600" width="120" height="60" as="geometry" />
        </mxCell>
        <mxCell id="9jra-Ao3VNzyFk-96re9-37" value="00 움직이는 베너" style="rounded=1;whiteSpace=wrap;html=1;" vertex="1" parent="WIyWlLk6GJQsqaUBKTNV-1">
          <mxGeometry x="20" y="80" width="120" height="60" as="geometry" />
        </mxCell>
        <mxCell id="9jra-Ao3VNzyFk-96re9-38" value="스토어페이지" style="rounded=1;whiteSpace=wrap;html=1;" vertex="1" parent="WIyWlLk6GJQsqaUBKTNV-1">
          <mxGeometry x="340" y="260" width="120" height="60" as="geometry" />
        </mxCell>
        <mxCell id="9jra-Ao3VNzyFk-96re9-48" value="" style="edgeStyle=orthogonalEdgeStyle;rounded=0;orthogonalLoop=1;jettySize=auto;html=1;" edge="1" parent="WIyWlLk6GJQsqaUBKTNV-1" source="9jra-Ao3VNzyFk-96re9-40" target="9jra-Ao3VNzyFk-96re9-45">
          <mxGeometry relative="1" as="geometry" />
        </mxCell>
        <mxCell id="9jra-Ao3VNzyFk-96re9-40" value="상세페이지" style="rounded=1;whiteSpace=wrap;html=1;" vertex="1" parent="WIyWlLk6GJQsqaUBKTNV-1">
          <mxGeometry x="180" y="380" width="120" height="60" as="geometry" />
        </mxCell>
        <mxCell id="9jra-Ao3VNzyFk-96re9-45" value="메인이미지/결제창" style="rounded=1;whiteSpace=wrap;html=1;" vertex="1" parent="WIyWlLk6GJQsqaUBKTNV-1">
          <mxGeometry x="180" y="480" width="120" height="60" as="geometry" />
        </mxCell>
        <mxCell id="9jra-Ao3VNzyFk-96re9-46" value="AI추천상품" style="rounded=1;whiteSpace=wrap;html=1;" vertex="1" parent="WIyWlLk6GJQsqaUBKTNV-1">
          <mxGeometry x="330" y="570" width="120" height="60" as="geometry" />
        </mxCell>
        <mxCell id="9jra-Ao3VNzyFk-96re9-47" value="상세페이지" style="rounded=1;whiteSpace=wrap;html=1;" vertex="1" parent="WIyWlLk6GJQsqaUBKTNV-1">
          <mxGeometry x="180" y="570" width="120" height="60" as="geometry" />
        </mxCell>
        <mxCell id="9jra-Ao3VNzyFk-96re9-49" value="" style="endArrow=none;html=1;exitX=0.5;exitY=0;exitDx=0;exitDy=0;" edge="1" parent="WIyWlLk6GJQsqaUBKTNV-1" source="9jra-Ao3VNzyFk-96re9-47">
          <mxGeometry width="50" height="50" relative="1" as="geometry">
            <mxPoint x="190" y="590" as="sourcePoint" />
            <mxPoint x="240" y="540" as="targetPoint" />
          </mxGeometry>
        </mxCell>
        <mxCell id="9jra-Ao3VNzyFk-96re9-50" value="" style="endArrow=none;html=1;exitX=1;exitY=0.5;exitDx=0;exitDy=0;entryX=0;entryY=0.5;entryDx=0;entryDy=0;" edge="1" parent="WIyWlLk6GJQsqaUBKTNV-1" source="9jra-Ao3VNzyFk-96re9-47" target="9jra-Ao3VNzyFk-96re9-46">
          <mxGeometry width="50" height="50" relative="1" as="geometry">
            <mxPoint x="700" y="530" as="sourcePoint" />
            <mxPoint x="750" y="480" as="targetPoint" />
          </mxGeometry>
        </mxCell>
      </root>
    </mxGraphModel>
  </diagram>
</mxfile>
